HIERARCHY
ROOT hip
{
  OFFSET 184.647 81.0002 1.27926
  CHANNELS 6 Xposition Yposition Zposition Zrotation Xrotation Yrotation
  JOINT abdomen
  {
    OFFSET 0 20.6881 -0.73152
    CHANNELS 3 Zrotation Xrotation Yrotation
    JOINT chest
    {
      OFFSET 0 11.7043 -0.48768
      CHANNELS 3 Zrotation Xrotation Yrotation
      JOINT neck
      {
        OFFSET 0 22.1894 -2.19456
        CHANNELS 3 Zrotation Xrotation Yrotation
        JOINT head
        {
          OFFSET -0.24384 7.07133 1.2192
          CHANNELS 3 Zrotation Xrotation Yrotation
          JOINT leftEye
          {
            OFFSET 4.14528 8.04674 8.04672
            CHANNELS 3 Zrotation Xrotation Yrotation
            End Site
            {
              OFFSET 1 0 0
            }
          }
          JOINT rightEye
          {
            OFFSET -3.6576 8.04674 8.04672
            CHANNELS 3 Zrotation Xrotation Yrotation
            End Site
            {
              OFFSET 1 0 0
            }
          }
        }
      }
      JOINT rCollar
      {
        OFFSET -2.68224 19.2634 -4.8768
        CHANNELS 3 Zrotation Xrotation Yrotation
        JOINT rShldr
        {
          OFFSET -8.77824 -1.95073 1.46304
          CHANNELS 3 Zrotation Xrotation Yrotation
          JOINT rForeArm
          {
            OFFSET -28.1742 -1.7115 0.48768
            CHANNELS 3 Zrotation Xrotation Yrotation
            JOINT rHand
            {
              OFFSET -22.5879 0.773209 7.07136
              CHANNELS 3 Zrotation Xrotation Yrotation
              JOINT rThumb1
              {
                OFFSET -1.2192 -0.487915 3.41376
                CHANNELS 3 Zrotation Xrotation Yrotation
                JOINT rThumb2
                {
                  OFFSET -3.37035 -0.52449 3.41376
                  CHANNELS 3 Zrotation Xrotation Yrotation
                  End Site
                  {
                    OFFSET -1.78271 -1.18214 1.43049
                  }
                }
              }
              JOINT rIndex1
              {
                OFFSET -7.75947 0.938293 5.60832
                CHANNELS 3 Zrotation Xrotation Yrotation
                JOINT rIndex2
                {
                  OFFSET -2.54057 -0.884171 1.56538
                  CHANNELS 3 Zrotation Xrotation Yrotation
                  End Site
                  {
                    OFFSET -1.62519 -0.234802 1.16502
                  }
                }
              }
              JOINT rMid1
              {
                OFFSET -8.24714 1.18213 3.41376
                CHANNELS 3 Zrotation Xrotation Yrotation
                JOINT rMid2
                {
                  OFFSET -3.10165 -0.590103 1.0647
                  CHANNELS 3 Zrotation Xrotation Yrotation
                  End Site
                  {
                    OFFSET -2.48547 -0.328903 0.83742
                  }
                }
              }
              JOINT rRing1
              {
                OFFSET -8.82822 0.546677 1.51678
                CHANNELS 3 Zrotation Xrotation Yrotation
                JOINT rRing2
                {
                  OFFSET -2.60934 -0.819778 -0.0198488
                  CHANNELS 3 Zrotation Xrotation Yrotation
                  End Site
                  {
                    OFFSET -2.33842 -0.294052 0.168128
                  }
                }
              }
              JOINT rPinky1
              {
                OFFSET -8.27202 -0.0477905 -0.4584
                CHANNELS 3 Zrotation Xrotation Yrotation
                JOINT rPinky2
                {
                  OFFSET -1.82734 -0.647385 -0.700984
                  CHANNELS 3 Zrotation Xrotation Yrotation
                  End Site
                  {
                    OFFSET -1.69225 -0.51767 -0.607171
                  }
                }
              }
            }
          }
        }
      }
      JOINT lCollar
      {
        OFFSET 2.68224 19.2634 -4.8768
        CHANNELS 3 Zrotation Xrotation Yrotation
        JOINT lShldr
        {
          OFFSET 8.77824 -1.95073 1.46304
          CHANNELS 3 Zrotation Xrotation Yrotation
          JOINT lForeArm
          {
            OFFSET 28.1742 -1.7115 0.48768
            CHANNELS 3 Zrotation Xrotation Yrotation
            JOINT lHand
            {
              OFFSET 22.5879 0.773209 7.07136
              CHANNELS 3 Zrotation Xrotation Yrotation
              JOINT lThumb1
              {
                OFFSET 1.2192 -0.487915 3.41376
                CHANNELS 3 Zrotation Xrotation Yrotation
                JOINT lThumb2
                {
                  OFFSET 3.37035 -0.52449 3.41376
                  CHANNELS 3 Zrotation Xrotation Yrotation
                  End Site
                  {
                    OFFSET 1.78271 -1.18214 1.43049
                  }
                }
              }
              JOINT lIndex1
              {
                OFFSET 7.75947 0.938293 5.60832
                CHANNELS 3 Zrotation Xrotation Yrotation
                JOINT lIndex2
                {
                  OFFSET 2.54057 -0.884171 1.56538
                  CHANNELS 3 Zrotation Xrotation Yrotation
                  End Site
                  {
                    OFFSET 1.62519 -0.234802 1.16502
                  }
                }
              }
              JOINT lMid1
              {
                OFFSET 8.24714 1.18213 3.41376
                CHANNELS 3 Zrotation Xrotation Yrotation
                JOINT lMid2
                {
                  OFFSET 3.10165 -0.590103 1.0647
                  CHANNELS 3 Zrotation Xrotation Yrotation
                  End Site
                  {
                    OFFSET 2.48547 -0.328903 0.83742
                  }
                }
              }
              JOINT lRing1
              {
                OFFSET 8.82822 0.546677 1.51678
                CHANNELS 3 Zrotation Xrotation Yrotation
                JOINT lRing2
                {
                  OFFSET 2.60934 -0.819778 -0.0198488
                  CHANNELS 3 Zrotation Xrotation Yrotation
                  End Site
                  {
                    OFFSET 2.33842 -0.294052 0.168128
                  }
                }
              }
              JOINT lPinky1
              {
                OFFSET 8.27202 -0.0477905 -0.4584
                CHANNELS 3 Zrotation Xrotation Yrotation
                JOINT lPinky2
                {
                  OFFSET 1.82734 -0.647385 -0.700984
                  CHANNELS 3 Zrotation Xrotation Yrotation
                  End Site
                  {
                    OFFSET 1.69225 -0.51767 -0.607171
                  }
                }
              }
            }
          }
        }
      }
    }
  }
  JOINT rButtock
  {
    OFFSET -8.77824 4.35084 1.2192
    CHANNELS 3 Zrotation Xrotation Yrotation
    JOINT rThigh
    {
      OFFSET 0 -1.70687 -2.19456
      CHANNELS 3 Zrotation Xrotation Yrotation
      JOINT rShin
      {
        OFFSET 0 -36.8199 0.73152
        CHANNELS 3 Zrotation Xrotation Yrotation
        JOINT rFoot
        {
          OFFSET 0.73152 -45.1104 -5.12064
          CHANNELS 3 Zrotation Xrotation Yrotation
          End Site
          {
            OFFSET -1.1221 -3.69964 12.103
          }
        }
      }
    }
  }
  JOINT lButtock
  {
    OFFSET 8.77824 4.35084 1.2192
    CHANNELS 3 Zrotation Xrotation Yrotation
    JOINT lThigh
    {
      OFFSET 0 -1.70687 -2.19456
      CHANNELS 3 Zrotation Xrotation Yrotation
      JOINT lShin
      {
        OFFSET 0 -36.8199 0.73152
        CHANNELS 3 Zrotation Xrotation Yrotation
        JOINT lFoot
        {
          OFFSET -0.73152 -45.1104 -5.12064
          CHANNELS 3 Zrotation Xrotation Yrotation
          End Site
          {
            OFFSET 1.1221 -3.69964 12.103
          }
        }
      }
    }
  }
}
MOTION
Frames:	4
Frame Time:	0.00833333
-22.9948 84.7876 10.3575 -14.8249 3.30555 88.6211 -2.31479 -2.30861 -8.19995 5.92663 -23.2447 -0.983922 7.80247 0.695151 5.46548 -16.173 16.3609 12.9077 -0 0 0 -0 0 0 -7.15666e-014 -9.03796e-014 2.1961e-013 97.3507 37.7052 -54.1053 -16.5369 -9.20167 30.8001 -0.191458 -12.3619 -1.76515 1.93819e-010 -2.89179e-010 1.66018e-009 3.24534e-010 -5.05592e-010 2.87597e-009 1.93831e-010 -2.89177e-010 1.66017e-009 7.73091 5.47488 0.417314 1.93818e-010 -2.89178e-010 1.66018e-009 2.90554 0.965183 0.102902 1.93823e-010 -2.89177e-010 1.66018e-009 10.2786 0.731801 0.0259123 1.93814e-010 -2.89174e-010 1.66018e-009 2.22167 -0.733487 -0.20892 -7.17669e-014 -9.0391e-014 2.19219e-013 -89.3307 57.1072 17.7801 27.7434 -41.4787 -86.7284 0.00480019 -1.77571 0.249638 -1.13867e-009 -2.28453e-009 1.52685e-009 -1.97153e-009 -3.95026e-009 2.6359e-009 -1.13868e-009 -2.28452e-009 1.52686e-009 -7.73091 5.47488 -0.417314 -1.13867e-009 -2.28452e-009 1.52686e-009 -2.90554 0.965183 -0.102902 -1.13868e-009 -2.28453e-009 1.52685e-009 -10.2786 0.731801 -0.0259123 -1.13867e-009 -2.28452e-009 1.52684e-009 -2.22167 -0.733487 0.20892 -2.03217e-016 0 -3.88251e-019 10.4045 -35.2739 14.5973 0.0640836 12.0959 0.876206 2.00568 2.47929 -19.8332 2.03217e-016 0 3.88251e-019 -12.0089 -4.09284 -2.12977 0.0316781 32.089 -0.507299 -3.02943 9.07211 29.5601 
-19.1088 83.8638 10.6231 -13.5564 2.90969 89.4405 -2.44594 -1.45774 -8.08032 5.76002 -23.1076 -0.995005 7.57308 0.903873 5.29308 -16.5698 16.1261 12.7021 -0 0 0 -0 0 0 -5.66614e-014 -4.30342e-014 1.53015e-013 98.1226 38.7237 -53.8405 -16.8834 -9.54335 31.5389 -0.2066 -12.8057 -1.83085 -3.42554e-010 -7.44247e-010 1.50507e-009 -6.04918e-010 -1.29209e-009 2.60371e-009 -3.42546e-010 -7.44243e-010 1.50506e-009 7.73091 5.47488 0.417314 -3.42557e-010 -7.44245e-010 1.50507e-009 2.90554 0.965183 0.102902 -3.42553e-010 -7.44245e-010 1.50508e-009 10.2786 0.731801 0.0259123 -3.42559e-010 -7.44242e-010 1.50508e-009 2.22167 -0.733487 -0.20892 -5.6895e-014 -4.30408e-014 1.52657e-013 -92.554 58.3937 20.6804 27.7804 -41.25 -86.3746 0.0068302 -1.8824 0.264641 -1.21877e-009 -2.7542e-009 2.04485e-009 -2.11252e-009 -4.76809e-009 3.53535e-009 -1.21878e-009 -2.75419e-009 2.04485e-009 -7.73091 5.47488 -0.417314 -1.21877e-009 -2.75419e-009 2.04485e-009 -2.90554 0.965183 -0.102902 -1.21878e-009 -2.75419e-009 2.04485e-009 -10.2786 0.731801 -0.0259123 -1.21877e-009 -2.75419e-009 2.04483e-009 -2.22167 -0.733487 0.20892 -2.03217e-016 0 -3.88251e-019 9.94013 -32.2369 12.5077 0.0503696 13.6692 0.71573 1.34837 1.18702 -15.0796 2.03217e-016 0 3.88251e-019 -11.0928 -4.99845 -0.244679 0.12555 39.0384 -0.818102 -0.356744 4.90544 28.3813 
-15.3538 82.4237 10.8761 -12.3001 2.52841 89.7909 -2.07226 -0.425121 -7.74528 5.60178 -23.0454 -0.923204 7.17795 1.0865 5.06647 -16.9183 15.7628 12.4009 -0 0 0 -0 0 0 -4.16e-014 4.61555e-014 7.5188e-014 98.5682 39.9059 -53.198 -17.2455 -9.90342 32.3348 -0.216612 -13.0939 -1.87361 -9.12274e-010 -1.20124e-009 1.28924e-009 -1.59155e-009 -2.08163e-009 2.22617e-009 -9.12269e-010 -1.20124e-009 1.28923e-009 7.73091 5.47488 0.417314 -9.12278e-010 -1.20124e-009 1.28925e-009 2.90554 0.965183 0.102902 -9.12274e-010 -1.20124e-009 1.28925e-009 10.2786 0.731801 0.0259123 -9.12278e-010 -1.20124e-009 1.28926e-009 2.22167 -0.733487 -0.20892 -4.18577e-014 4.61535e-014 7.48684e-014 -95.9684 59.1397 23.7366 27.8812 -40.8244 -85.5657 0.0068552 -1.83366 0.25778 -1.26769e-009 -3.16647e-009 2.57488e-009 -2.1994e-009 -5.48651e-009 4.45576e-009 -1.26769e-009 -3.16647e-009 2.57489e-009 -7.73091 5.47488 -0.417314 -1.26769e-009 -3.16646e-009 2.57488e-009 -2.90554 0.965183 -0.102902 -1.2677e-009 -3.16646e-009 2.57488e-009 -10.2786 0.731801 -0.0259123 -1.26769e-009 -3.16646e-009 2.57487e-009 -2.22167 -0.733487 0.20892 -2.03217e-016 0 -3.88251e-019 10.254 -29.4111 10.5606 0.0397643 16.2444 0.553191 0.782095 -0.726179 -10.1181 2.03217e-016 0 3.88251e-019 -9.76867 -6.48356 1.5401 0.320352 46.2028 -1.21162 2.33303 0.0285465 26.7199 
-11.8307 80.7703 11.2284 -11.4724 2.64789 89.4463 -0.600056 0.492916 -7.08789 5.37894 -23.0816 -0.736333 6.58115 1.11706 4.80802 -17.1766 15.5048 12.0835 -0 0 0 -0 0 0 -3.56525e-014 1.962e-013 1.44616e-014 98.2525 41.1264 -51.8675 -17.531 -10.1912 32.9764 -0.210401 -12.9559 -1.85284 -1.2291e-009 -1.42367e-009 1.09498e-009 -2.13959e-009 -2.46563e-009 1.88782e-009 -1.2291e-009 -1.42367e-009 1.09496e-009 7.73091 5.47488 0.417314 -1.2291e-009 -1.42367e-009 1.09498e-009 2.90554 0.965183 0.102902 -1.2291e-009 -1.42367e-009 1.09498e-009 10.2786 0.731801 0.0259123 -1.2291e-009 -1.42367e-009 1.09499e-009 2.22167 -0.733487 -0.20892 -3.59124e-014 1.962e-013 1.41634e-014 -99.1949 59.0437 26.7115 28.028 -40.2643 -84.3965 0.00237305 -1.39083 0.195507 -1.22472e-009 -3.24525e-009 2.7935e-009 -2.12586e-009 -5.62541e-009 4.83618e-009 -1.22472e-009 -3.24524e-009 2.79351e-009 -7.73091 5.47488 -0.417314 -1.22471e-009 -3.24524e-009 2.79349e-009 -2.90554 0.965183 -0.102902 -1.22473e-009 -3.24524e-009 2.7935e-009 -10.2786 0.731801 -0.0259123 -1.22472e-009 -3.24524e-009 2.79348e-009 -2.22167 -0.733487 0.20892 -2.03217e-016 0 -3.88251e-019 11.6794 -27.5855 9.24393 0.0231471 19.2684 0.415885 0.480962 -2.85573 -6.21842 2.03217e-016 0 3.88251e-019 -7.66914 -9.22182 3.12914 0.58908 52.8 -1.62529 4.02697 -3.85215 24.8741 
